<svg viewBox="0 -46 512 511" xmlns="http://www.w3.org/2000/svg"><path d="M467 .5H45C20.187.5 0 20.688 0 45.5v240c0 24.813 20.188 45 45 45h46v75c0 12.402 14.184 19.363 24 12l116-87h236c24.813 0 45-20.188 45-45v-240c0-24.813-20.188-45-45-45zm15 285c0 8.27-6.73 15-15 15H226a15.015 15.015 0 0 0-9 3l-96 72v-60c0-8.285-6.715-15-15-15H45c-8.27 0-15-6.73-15-15v-240c0-8.27 6.73-15 15-15h422c8.27 0 15 6.73 15 15zm0 0"/><path d="M406 90.5H106c-8.285 0-15 6.715-15 15s6.715 15 15 15h300c8.285 0 15-6.715 15-15s-6.715-15-15-15zM301 165.5c0-8.285-6.715-15-15-15H106c-8.285 0-15 6.715-15 15s6.715 15 15 15h180c8.285 0 15-6.715 15-15zM406 150.5h-60c-8.285 0-15 6.715-15 15s6.715 15 15 15h60c8.285 0 15-6.715 15-15s-6.715-15-15-15zM196 210.5h-90c-8.285 0-15 6.715-15 15s6.715 15 15 15h90c8.285 0 15-6.715 15-15s-6.715-15-15-15zM406 210.5H256c-8.285 0-15 6.715-15 15s6.715 15 15 15h150c8.285 0 15-6.715 15-15s-6.715-15-15-15zm0 0"/></svg>