<svg viewBox="0 -46 512 511" xmlns="http://www.w3.org/2000/svg"><path d="m467 .5h-422c-24.8125 0-45 20.1875-45 45v240c0 24.8125 20.1875 45 45 45h46v75c0 12.402344 14.183594 19.363281 24 12l116-87h236c24.8125 0 45-20.1875 45-45v-240c0-24.8125-20.1875-45-45-45zm15 285c0 8.269531-6.730469 15-15 15h-241c-3.246094 0-6.402344 1.054688-9 3l-96 72v-60c0-8.285156-6.714844-15-15-15h-61c-8.269531 0-15-6.730469-15-15v-240c0-8.269531 6.730469-15 15-15h422c8.269531 0 15 6.730469 15 15zm0 0"></path><path d="m406 90.5h-300c-8.285156 0-15 6.714844-15 15s6.714844 15 15 15h300c8.285156 0 15-6.714844 15-15s-6.714844-15-15-15zm0 0"></path><path d="m301 165.5c0-8.285156-6.714844-15-15-15h-180c-8.285156 0-15 6.714844-15 15s6.714844 15 15 15h180c8.285156 0 15-6.714844 15-15zm0 0"></path><path d="m406 150.5h-60c-8.285156 0-15 6.714844-15 15s6.714844 15 15 15h60c8.285156 0 15-6.714844 15-15s-6.714844-15-15-15zm0 0"></path><path d="m196 210.5h-90c-8.285156 0-15 6.714844-15 15s6.714844 15 15 15h90c8.285156 0 15-6.714844 15-15s-6.714844-15-15-15zm0 0"></path><path d="m406 210.5h-150c-8.285156 0-15 6.714844-15 15s6.714844 15 15 15h150c8.285156 0 15-6.714844 15-15s-6.714844-15-15-15zm0 0"></path></svg>